<?xml version="1.0" encoding="UTF-8" standalone="no"?>
<!-- Created with Inkscape (http://www.inkscape.org/) -->

<svg
   width="48"
   height="48"
   viewBox="0 0 12.7 12.7"
   version="1.1"
   id="svg1"
   xml:space="preserve"
   inkscape:version="1.4.4 (dcaf3e7, 2026-05-05)"
   sodipodi:docname="jz-launcher.svg"
   xmlns:inkscape="http://www.inkscape.org/namespaces/inkscape"
   xmlns:sodipodi="http://sodipodi.sourceforge.net/DTD/sodipodi-0.dtd"
   xmlns="http://www.w3.org/2000/svg"
   xmlns:svg="http://www.w3.org/2000/svg"><sodipodi:namedview
     id="namedview1"
     pagecolor="#ffffff"
     bordercolor="#000000"
     borderopacity="0.25"
     inkscape:showpageshadow="2"
     inkscape:pageopacity="0.0"
     inkscape:pagecheckerboard="0"
     inkscape:deskcolor="#d1d1d1"
     inkscape:document-units="mm"
     inkscape:zoom="4.2205436"
     inkscape:cx="-17.059414"
     inkscape:cy="-30.090911"
     inkscape:window-width="2560"
     inkscape:window-height="1371"
     inkscape:window-x="0"
     inkscape:window-y="0"
     inkscape:window-maximized="1"
     inkscape:current-layer="layer1" /><defs
     id="defs1" /><g
     inkscape:groupmode="layer"
     id="layer2"
     inkscape:label="图层 2"
     transform="translate(0.0313447)"><rect
       style="fill:#9550b1;stroke-width:0.1;fill-opacity:1"
       id="rect1"
       width="11.785606"
       height="11.785606"
       x="0.45449814"
       y="0.48584282"
       rx="3"
       ry="3" /></g><g
     inkscape:label="图层 1"
     inkscape:groupmode="layer"
     id="layer1"
     transform="matrix(0.90648954,0,0,0.90648954,0.84415933,0.51253591)"><path
       style="opacity:1;fill:#ffffff;fill-opacity:1;fill-rule:nonzero;stroke-width:0.100775;stroke-dasharray:none"
       d="m 9.2041558,7.4209386 c 0.05905,-0.1630716 0.13796,-0.3548968 0.2677354,-0.5089312 0.08095,-0.096081 0.2138305,-0.2196585 0.345035,-0.289746 0.091631,-0.048948 0.1320761,-0.078837 0.1581635,-0.099428 0.044874,-0.035416 -0.010467,0.010239 -0.00174,-0.024315 0.093498,-0.3669483 0.1059113,0.034131 0.2229113,0.1291517 0,0 -0.09779,0.00469 -0.262211,0.1004428 C 9.8059174,6.8027547 9.6777411,6.915448 9.6005556,7.0061278 9.5066005,7.1165522 9.4766228,7.1837503 9.3789485,7.4560381 9.3401299,7.5642476 9.3136197,7.6524796 9.243397,7.7323332 9.1167865,7.8763087 9.0688491,7.9234641 8.9626148,7.9662561 8.8322179,8.018781 8.7044508,8.0983592 8.625383,8.1166217 7.7875968,8.310128 8.5139411,7.9493644 8.5139411,7.9493644 c 0,0 0.1923446,-0.045839 0.3932717,-0.1601945 0.1603579,-0.091266 0.224066,-0.1669749 0.296943,-0.3682313 z"
       id="path40"
       sodipodi:nodetypes="ssssscsssssscss" /><path
       style="opacity:1;fill:#ffffff;fill-opacity:1;fill-rule:nonzero;stroke-width:0.267051;stroke-dasharray:none"
       d="M 7.5378714,8.7885821 8.4997348,9.1973112 8.1329423,8.6059363 Z"
       id="path37"
       sodipodi:nodetypes="cccc" /><path
       style="opacity:1;fill:#ffffff;fill-opacity:1;fill-rule:nonzero;stroke-width:0.267051;stroke-dasharray:none"
       d="M 3.902671,8.3440859 3.5061741,10.115996 4.6150789,9.2008787 5.5771075,9.2356356 6.0414467,10.318236 6.6122273,9.2181334 8.5843879,8.6609548 9.6280636,8.8564667 8.476732,7.8024873 c 0,0 -1.9414152,0.1499808 -1.9914088,0.158313 -0.049993,0.00833 -2.5826522,0.3832835 -2.5826522,0.3832835 z"
       id="path36"
       sodipodi:nodetypes="cccccccccsc" /><path
       style="opacity:1;fill:#9550b1;fill-opacity:1;fill-rule:nonzero;stroke-width:0.10432;stroke-dasharray:none"
       d="m 3.9282844,8.4530325 c 0,0 0.5034495,0.3131124 1.5553918,0.3001006 0.767286,-0.0095 1.5898662,-0.040908 2.2426568,-0.3397174 C 7.9685128,8.3025602 8.3768119,8.0152164 8.4588051,7.8373828 8.761811,7.1802003 8.2540905,7.7056127 8.2540905,7.7056127 L 4.0005851,8.2782071 Z"
       id="path41"
       sodipodi:nodetypes="csssccc" /><g
       id="g25"
       transform="matrix(0.80922513,0,0,0.80922513,1.0575096,2.1738377)"><path
         style="opacity:1;fill:#ffffff;fill-opacity:1;stroke-width:0.32949"
         d="m 4.4077405,7.9093501 c 0,0 -3.371824,-0.2927839 -3.473755,-2.3022805 -0.10193055,-2.0094967 0.9099647,-2.8696011 0.9099647,-2.8696011 0,0 0.4421546,-0.5784948 0.6689594,-0.8272176 0.4032666,-0.4422375 1.3451498,-1.0896727 1.3451498,-1.0896727 0,0 -0.2503062,0.8978019 0.02308,1.2647906 0.1981748,0.2660246 0.3133734,0.3457607 0.6776945,0.4407333 0.4298883,0.112065 0.2372297,0.071996 0.6060975,0.1117437 0.1558376,0.016793 0.2821617,0.024379 1.0516023,-0.082278 C 6.8780432,2.4638717 6.9148713,2.3629025 7.4160964,2.0329334 7.5850391,1.9217142 8.041247,1.6204407 8.2312524,1.4912519 8.8849692,1.046774 9.8982161,0.98245935 9.8982161,0.98245935 c 0,0 -0.3167354,0.34728475 -0.4076344,0.76770385 C 9.4454907,1.958697 9.4366227,2.2523753 9.4831517,2.4421309 9.6044481,2.9365383 9.7110028,2.9483848 9.8131366,3.226253 9.95975,3.625134 10.071016,3.8250942 10.094259,4.2357584 10.1058,4.439752 10.166487,4.6982778 10.129434,5.0567876 9.9831355,6.4722781 9.4670689,8.1963467 4.4077283,7.9093501 Z"
         id="path21"
         sodipodi:nodetypes="cscsccssssscsssssc" /><ellipse
         style="opacity:1;fill:#9550b1;fill-opacity:1;stroke-width:0.32949"
         id="path22"
         cx="3.2070539"
         cy="4.6376271"
         rx="0.61158592"
         ry="1.1285217" /><ellipse
         style="opacity:1;fill:#9550b1;fill-opacity:1;stroke-width:0.32949"
         id="path23"
         cx="7.5141559"
         cy="4.8653574"
         rx="0.74628049"
         ry="1.2632163" /></g><path
       sodipodi:type="star"
       style="opacity:1;fill:#ffffff;fill-opacity:1;fill-rule:nonzero;stroke-width:0.1;stroke-dasharray:none"
       id="path39"
       inkscape:flatsided="false"
       sodipodi:sides="5"
       sodipodi:cx="10.073556"
       sodipodi:cy="6.2206984"
       sodipodi:r1="0.45617852"
       sodipodi:r2="0.22808926"
       sodipodi:arg1="1.5451609"
       sodipodi:arg2="2.1734794"
       inkscape:rounded="0"
       inkscape:randomized="0"
       d="M 10.085249,6.676727 9.9442624,6.4086023 9.6434603,6.3727397 9.8548948,6.1557984 9.7960492,5.8586364 10.067709,5.992684 l 0.264434,-0.1477936 -0.04354,0.2997873 0.222274,0.2058205 -0.298569,0.051231 z"
       inkscape:transform-center-x="0.029025311"
       inkscape:transform-center-y="0.056906176"
       transform="matrix(0.84074987,-1.7605178,1.7605178,0.84074987,-9.1957075,18.781746)" /></g></svg>
