<?xml version="1.0" encoding="UTF-8" standalone="no"?>
<!-- Created with Inkscape (http://www.inkscape.org/) -->

<svg
   width="48"
   height="48"
   viewBox="0 0 12.7 12.7"
   version="1.1"
   id="svg1"
   xml:space="preserve"
   inkscape:version="1.4.4 (dcaf3e7, 2026-05-05)"
   sodipodi:docname="jz-launcher.svg"
   xmlns:inkscape="http://www.inkscape.org/namespaces/inkscape"
   xmlns:sodipodi="http://sodipodi.sourceforge.net/DTD/sodipodi-0.dtd"
   xmlns="http://www.w3.org/2000/svg"
   xmlns:svg="http://www.w3.org/2000/svg"><sodipodi:namedview
     id="namedview1"
     pagecolor="#ffffff"
     bordercolor="#000000"
     borderopacity="0.25"
     inkscape:showpageshadow="2"
     inkscape:pageopacity="0.0"
     inkscape:pagecheckerboard="0"
     inkscape:deskcolor="#d1d1d1"
     inkscape:document-units="mm"
     inkscape:zoom="11.9375"
     inkscape:cx="15.581152"
     inkscape:cy="14.073298"
     inkscape:window-width="2560"
     inkscape:window-height="1371"
     inkscape:window-x="0"
     inkscape:window-y="0"
     inkscape:window-maximized="1"
     inkscape:current-layer="layer1" /><defs
     id="defs1" /><g
     inkscape:groupmode="layer"
     id="layer2"
     inkscape:label="图层 2"
     transform="translate(0.0313447)"><rect
       style="fill:#9550b1;stroke-width:0.1;fill-opacity:1"
       id="rect1"
       width="11.785606"
       height="11.785606"
       x="0.45449814"
       y="0.48584282"
       rx="3"
       ry="3" /></g><g
     inkscape:label="图层 1"
     inkscape:groupmode="layer"
     id="layer1"
     transform="matrix(0.90648954,0,0,0.90648954,0.84415933,0.51253591)"><path
       style="opacity:1;fill:#ffffff;fill-opacity:1;fill-rule:nonzero;stroke-width:0.124532;stroke-dasharray:none"
       d="M 9.8721049,7.3522275 C 9.9450759,7.1507117 10.042589,6.9136638 10.202959,6.7233158 10.302993,6.6045835 10.4672,6.4518728 10.629336,6.3652621 c 0.113233,-0.060488 0.163213,-0.097423 0.195451,-0.1228677 0.05545,-0.043765 -0.01293,0.012652 -0.0021,-0.030048 0.115539,-0.4534564 0.130878,0.042178 0.275463,0.1595992 0,0 -0.12085,0.0058 -0.324028,0.1241222 -0.15839,0.092239 -0.316784,0.2314997 -0.412166,0.3435572 -0.116105,0.136457 -0.15315,0.2194971 -0.273851,0.5559767 -0.04797,0.1337199 -0.08073,0.2427526 -0.1675077,0.3414318 C 9.7641384,7.9149511 9.7048997,7.9732235 9.5736206,8.0261037 9.4124826,8.0910113 9.2545945,8.1893501 9.1568865,8.211918 8.1215921,8.4510435 9.0191721,8.0052297 9.0191721,8.0052297 c 0,0 0.2376899,-0.056646 0.4859856,-0.1979603 C 9.7033199,7.694488 9.7820472,7.6009302 9.8721049,7.3522275 Z"
       id="path40"
       sodipodi:nodetypes="ssssscsssssscss" /><path
       style="opacity:1;fill:#ffffff;fill-opacity:1;fill-rule:nonzero;stroke-width:0.330009;stroke-dasharray:none"
       d="M 7.8129938,9.042293 9.0016166,9.54738 8.5483528,8.8165886 Z"
       id="path37"
       sodipodi:nodetypes="cccc" /><path
       style="opacity:1;fill:#ffffff;fill-opacity:1;fill-rule:nonzero;stroke-width:0.330009;stroke-dasharray:none"
       d="M 3.3207948,8.4930069 2.8308237,10.682646 4.2011529,9.5517886 5.3899798,9.5947394 5.963787,10.932563 6.6691291,9.5731111 9.1062268,8.8845776 10.395949,9.1261815 8.973191,7.8237263 c 0,0 -2.399104,0.1853389 -2.4608836,0.1956353 -0.061779,0.010301 -3.1915126,0.4736427 -3.1915126,0.4736427 z"
       id="path36"
       sodipodi:nodetypes="cccccccccsc" /><path
       style="opacity:1;fill:#9550b1;fill-opacity:1;fill-rule:nonzero;stroke-width:0.128914;stroke-dasharray:none"
       d="m 3.3524465,8.6276377 c 0,0 0.6221378,0.3869287 1.9220756,0.3708493 C 6.2226958,8.9867533 7.2391993,8.9479351 8.0458853,8.5786812 8.345159,8.4416915 8.8497147,8.0866063 8.9510377,7.8668485 9.3254773,7.0547352 8.6980618,7.7040135 8.6980618,7.7040135 L 3.4417921,8.4115971 Z"
       id="path41"
       sodipodi:nodetypes="csssccc" /><g
       id="g25"
       transform="translate(-0.19511351,0.8681223)"><path
         style="opacity:1;fill:#ffffff;fill-opacity:1;stroke-width:0.32949"
         d="m 4.4077405,7.9093501 c 0,0 -3.371824,-0.2927839 -3.473755,-2.3022805 -0.10193055,-2.0094967 0.9099647,-2.8696011 0.9099647,-2.8696011 0,0 0.4421546,-0.5784948 0.6689594,-0.8272176 0.4032666,-0.4422375 1.3451498,-1.0896727 1.3451498,-1.0896727 0,0 -0.2503062,0.8978019 0.02308,1.2647906 0.1981748,0.2660246 0.3133734,0.3457607 0.6776945,0.4407333 0.4298883,0.112065 0.2372297,0.071996 0.6060975,0.1117437 0.1558376,0.016793 0.2821617,0.024379 1.0516023,-0.082278 C 6.8780432,2.4638717 6.9148713,2.3629025 7.4160964,2.0329334 7.5850391,1.9217142 8.041247,1.6204407 8.2312524,1.4912519 8.8849692,1.046774 9.8982161,0.98245935 9.8982161,0.98245935 c 0,0 -0.3167354,0.34728475 -0.4076344,0.76770385 C 9.4454907,1.958697 9.4366227,2.2523753 9.4831517,2.4421309 9.6044481,2.9365383 9.7110028,2.9483848 9.8131366,3.226253 9.95975,3.625134 10.071016,3.8250942 10.094259,4.2357584 10.1058,4.439752 10.166487,4.6982778 10.129434,5.0567876 9.9831355,6.4722781 9.4670689,8.1963467 4.4077283,7.9093501 Z"
         id="path21"
         sodipodi:nodetypes="cscsccssssscsssssc" /><ellipse
         style="opacity:1;fill:#9550b1;stroke-width:0.32949;fill-opacity:1"
         id="path22"
         cx="3.2070539"
         cy="4.6376271"
         rx="0.61158592"
         ry="1.1285217" /><ellipse
         style="opacity:1;fill:#9550b1;stroke-width:0.32949;fill-opacity:1"
         id="path23"
         cx="7.5141559"
         cy="4.8653574"
         rx="0.74628049"
         ry="1.2632163" /></g><path
       sodipodi:type="star"
       style="opacity:1;fill:#ffffff;fill-opacity:1;fill-rule:nonzero;stroke-width:0.1;stroke-dasharray:none"
       id="path39"
       inkscape:flatsided="false"
       sodipodi:sides="5"
       sodipodi:cx="10.073556"
       sodipodi:cy="6.2206984"
       sodipodi:r1="0.45617852"
       sodipodi:r2="0.22808926"
       sodipodi:arg1="1.5451609"
       sodipodi:arg2="2.1734794"
       inkscape:rounded="0"
       inkscape:randomized="0"
       d="M 10.085249,6.676727 9.9442624,6.4086023 9.6434603,6.3727397 9.8548948,6.1557984 9.7960492,5.8586364 10.067709,5.992684 l 0.264434,-0.1477936 -0.04354,0.2997873 0.222274,0.2058205 -0.298569,0.051231 z"
       inkscape:transform-center-x="0.035868281"
       inkscape:transform-center-y="0.07032194"
       transform="matrix(1.0389567,-2.1755599,2.1755599,1.0389567,-12.865527,21.391345)" /></g></svg>
